<?xml version="1.0" encoding="UTF-8"?>
<svg width="30px" height="30px" viewBox="0 0 30 30" version="1.1" xmlns="http://www.w3.org/2000/svg" xmlns:xlink="http://www.w3.org/1999/xlink">
    <!-- Generator: sketchtool 53.2 (72643) - https://sketchapp.com -->
    <title>1133330A-379E-423C-8AD2-C467826FF766</title>
    <desc>Created with sketchtool.</desc>
    <g id="Symbols" stroke="none" stroke-width="1" fill="none" fill-rule="evenodd">
        <g id="Quickpayments/Icon/Flight" transform="translate(-12.000000, -12.000000)" fill-rule="nonzero">
            <g id="airplane" transform="translate(12.000000, 12.000000)">
                <g id="Group" transform="translate(9.843750, 1.933594)" fill="#66757F">
                    <path d="M15.5407617,17.9416992 C15.2060742,18.277207 14.6651367,18.277207 14.3305078,17.9416992 L13.1202539,16.7314453 C12.7847461,16.3967578 12.7847461,15.855 13.1202539,15.5211914 L15.5408789,13.1005664 C15.8755664,12.7658789 16.4165039,12.7658789 16.7511328,13.1005664 L17.9613867,14.3108203 C18.2968945,14.6446289 18.2968945,15.1864453 17.9613867,15.5210742 L15.5407617,17.9416992 Z" id="Path"></path>
                    <path d="M2.70164063,5.1028125 C2.36695313,5.43832031 1.82601563,5.43832031 1.49138672,5.1028125 L0.281132813,3.89255859 C-0.054375,3.55787109 -0.054375,3.01611328 0.281132813,2.68230469 L2.70175781,0.261679687 C3.03644531,-0.0730078125 3.57738281,-0.0730078125 3.91201172,0.261679687 L5.12226563,1.47193359 C5.45777344,1.80574219 5.45777344,2.34755859 5.12226563,2.6821875 L2.70164063,5.1028125 Z" id="Path"></path>
                </g>
                <g id="Group" transform="translate(0.000000, 4.628906)" fill="#55ACEE" fill-opacity="0.7">
                    <path d="M1.41814453,13.6816406 C3.13001953,13.6816406 10.8335156,14.5375781 10.8335156,14.5375781 C10.8335156,14.5375781 11.6894531,22.2410156 11.6894531,23.9528906 C11.6894531,25.6647656 9.97757812,25.6647656 9.12164062,24.8088281 C8.26570312,23.9528906 5.69789062,19.6732031 5.69789062,19.6732031 C5.69789062,19.6732031 1.41820312,17.1053906 0.562265625,16.2494531 C-0.293671875,15.3935156 -0.293730469,13.6816406 1.41814453,13.6816406" id="Path"></path>
                    <path d="M3.12960938,0.0196289062 C5.69742188,-0.0137109375 24.5281055,0.842226562 24.5281055,0.842226562 C24.5281055,0.842226562 25.3189453,19.6729102 25.3515234,22.2407227 C25.3841016,24.8085352 22.9874414,25.6661719 22.0458984,22.2416016 C21.1043555,18.8169727 17.6806055,7.68972656 17.6806055,7.68972656 C17.6806055,7.68972656 5.73597656,3.90984375 3.12533203,3.32267578 C-0.294140625,2.55404297 0.561796875,0.0530273438 3.12960938,0.0196289062" id="Path"></path>
                </g>
                <path d="M22.8166992,2.04767578 C24.5285742,0.335800781 28.8082617,-0.520136719 29.6641992,0.335800781 C30.5201367,1.19173828 29.6641992,5.47142578 27.9523242,7.18330078 C26.2404492,8.89517578 11.6894531,22.5902344 11.6894531,22.5902344 C11.6894531,22.5902344 6.12585937,26.4419531 4.84195312,25.1580469 C3.55804687,23.8741406 7.40976562,18.3105469 7.40976562,18.3105469 C7.40976562,18.3105469 21.1047656,3.75955078 22.8166992,2.04767578" id="Path" fill="#55ACEE"></path>
                <g id="Group" transform="translate(3.925781, 1.992188)" fill="#66757F">
                    <path d="M7.76367188,16.3183594 C7.76367188,16.3183594 8.19164063,16.7463281 4.33992187,20.5980469 C0.488203125,24.4497656 0.060234375,24.0217969 0.060234375,24.0217969 C0.060234375,24.0217969 -0.367734375,23.5938281 3.48398437,19.7421094 C7.33570312,15.8903906 7.76367188,16.3183594 7.76367188,16.3183594" id="Path"></path>
                    <path d="M20.602793,0.911425781 C22.0210547,0.911425781 23.1706055,2.06097656 23.1706055,3.47923828 L23.8596094,3.47923828 C23.957168,3.20958984 24.026543,2.92716797 24.026543,2.62330078 C24.026543,1.20503906 22.8769922,0.0554882812 21.4587305,0.0554882812 C21.1548633,0.0554882812 20.8715039,0.124863281 20.602793,0.222421875 L20.602793,0.911425781 Z" id="Path"></path>
                </g>
            </g>
        </g>
    </g>
</svg>