<?xml version="1.0" encoding="UTF-8"?>
<svg width="24px" height="25px" viewBox="0 0 24 25" version="1.1" xmlns="http://www.w3.org/2000/svg" xmlns:xlink="http://www.w3.org/1999/xlink">
    <!-- Generator: sketchtool 53.2 (72643) - https://sketchapp.com -->
    <title>12570892-8C43-40DF-989D-F6062103D254</title>
    <desc>Created with sketchtool.</desc>
    <g id="Symbols" stroke="none" stroke-width="1" fill="none" fill-rule="evenodd">
        <g id="Balance" transform="translate(0.000000, 1.000000)" fill="#FFFFFF" fill-rule="nonzero" stroke="#FFFFFF" stroke-width="0.6">
            <g id="wallet-2" transform="translate(1.000000, 0.000000)">
                <path d="M21.9468829,10.7103791 L20.8853994,10.7103791 L20.8853994,5.63602985 C20.8853994,4.41950149 19.9330571,3.42981493 18.7624324,3.42981493 L17.3247688,3.42981493 L15.8535435,0.680868657 C15.6293153,0.260758209 15.2025946,0 14.7398018,0 C14.5240961,0 14.3101081,0.0578089552 14.1211592,0.166767164 L8.47488889,3.42974627 L2.16795796,3.42974627 C0.997333333,3.42974627 0.044990991,4.41943284 0.044990991,5.63596119 L0.044990991,20.7852716 C0.044990991,22.0018 0.997333333,22.9914866 2.16795796,22.9914866 L18.7624324,22.9914866 C19.9330571,22.9914866 20.8853994,22.0018 20.8853994,20.7852716 L20.8853994,16.3361791 L21.9468829,16.3361791 L21.9468829,10.7103791 Z M18.7624324,4.3122597 C19.4162883,4.3122597 19.9504324,4.82848955 20.0221802,5.48903582 L18.4265526,5.48903582 L17.7972733,4.3122597 L18.7624324,4.3122597 Z M14.5342703,0.938056716 C14.7333934,0.822026866 15.0013574,0.903179104 15.1112913,1.10928657 L17.4550511,5.48862388 L6.65932733,5.48862388 L14.5342703,0.938056716 Z M20.0361862,20.7852716 C20.0361862,21.5150925 19.4646486,22.1090418 18.7623664,22.1090418 L2.16795796,22.1090418 C1.46567568,22.1090418 0.894138138,21.5150925 0.894138138,20.7852716 L0.894138138,5.63602985 C0.894138138,4.90620896 1.46567568,4.3122597 2.16795796,4.3122597 L6.94803604,4.3122597 L4.91168168,5.48910448 L2.43334535,5.48910448 C2.19854655,5.48910448 2.00873874,5.68676716 2.00873874,5.93036119 C2.00873874,6.17395522 2.19854655,6.37161791 2.43334535,6.37161791 L3.38443243,6.37161791 L18.8987267,6.37161791 L20.0361862,6.37161791 L20.0361862,10.710791 L16.9311471,10.710791 C15.4891892,10.710791 14.3156577,11.930409 14.3156577,13.4288418 L14.3156577,13.618609 C14.3156577,15.1171104 15.4892553,16.3366597 16.9311471,16.3366597 L20.0361862,16.3366597 L20.0361862,20.7852716 Z M21.0976697,15.4537343 L20.8853994,15.4537343 L16.9311471,15.4537343 C15.9571351,15.4537343 15.1648048,14.630403 15.1648048,13.6181284 L15.1648048,13.4283612 C15.1648048,12.4161552 15.9570691,11.5927552 16.9311471,11.5927552 L20.8853994,11.5927552 L21.0976697,11.5927552 L21.0976697,15.4537343 Z M18.2316577,13.5594955 C18.2316577,14.0978328 17.8121381,14.5337343 17.2941802,14.5337343 C16.7761562,14.5337343 16.3567027,14.0977642 16.3567027,13.5594955 C16.3567027,13.0212269 16.7762222,12.5852567 17.2941802,12.5852567 C17.8122042,12.5851881 18.2316577,13.0215701 18.2316577,13.5594955 Z" id="Shape"></path>
            </g>
        </g>
    </g>
</svg>