<?xml version="1.0" encoding="UTF-8"?>
<svg width="30px" height="32px" viewBox="0 0 30 32" version="1.1" xmlns="http://www.w3.org/2000/svg" xmlns:xlink="http://www.w3.org/1999/xlink">
    <!-- Generator: sketchtool 53.2 (72643) - https://sketchapp.com -->
    <title>4B444BD3-EBC5-47B6-953D-7089BD34F717</title>
    <desc>Created with sketchtool.</desc>
    <g id="Symbols" stroke="none" stroke-width="1" fill="none" fill-rule="evenodd">
        <g id="Quickpayments/Icon/Bus" transform="translate(-12.000000, -11.000000)" fill="#B6BDD5" fill-rule="nonzero">
            <g id="bus-2" transform="translate(12.000000, 11.000000)">
                <path d="M29.1006469,6.33353234 L27.8794609,6.33353234 L27.8794609,4.19685572 C27.8795418,1.87900498 25.9707817,0 23.6162264,0 L6.40633423,0 C4.05177898,0 2.14301887,1.87900498 2.14301887,4.19685572 L2.14301887,6.33353234 L0.921913747,6.33353234 C0.431644205,6.33353234 0.0342048518,6.72477612 0.0342048518,7.20748259 L0.0342048518,12.0482388 C0.0342048518,12.5308657 0.431644205,12.9221095 0.921913747,12.9221095 L2.14309973,12.9221095 L2.14309973,23.3564179 C1.66811321,23.7755224 1.36908356,24.3839204 1.36908356,25.0612537 L1.36908356,26.6784478 C1.36908356,27.9427662 2.41018868,28.9676418 3.6945283,28.9676418 L3.9822372,28.9676418 L3.9822372,31.2692537 C3.9822372,31.6411542 4.2887062,31.942607 4.66649596,31.942607 L7.81269542,31.942607 C8.19048518,31.942607 8.49663073,31.6411542 8.49663073,31.2692537 L8.49663073,28.9676418 L21.5260108,28.9676418 L21.5260108,31.2692537 C21.5260108,31.6411542 21.8321563,31.942607 22.210027,31.942607 L25.3561456,31.942607 C25.7339353,31.942607 26.0403235,31.6411542 26.0403235,31.2692537 L26.0403235,28.9676418 L26.3281132,28.9676418 C27.612372,28.9676418 28.653558,27.9427662 28.653558,26.6784478 L28.653558,25.0612537 C28.653558,24.384 28.3545283,23.7755224 27.8795418,23.3564179 L27.8795418,12.9220299 L29.1007278,12.9220299 C29.5909164,12.9220299 29.9884367,12.5307861 29.9884367,12.0481592 L29.9884367,7.20740299 C29.9883558,6.72477612 29.5909973,6.33353234 29.1006469,6.33353234 Z M25.2432615,6.67502488 L25.2432615,17.0018706 L16.1740431,17.0018706 L16.1740431,6.67502488 L25.2432615,6.67502488 Z M10.4896496,2.18825871 L19.5329919,2.18825871 C20.1608895,2.18825871 20.6699191,2.68927363 20.6699191,3.30746269 C20.6699191,3.92549254 20.1609704,4.42658706 19.5329919,4.42658706 L10.4896496,4.42658706 C9.86175202,4.42658706 9.35272237,3.92549254 9.35272237,3.30746269 C9.35272237,2.68927363 9.86175202,2.18825871 10.4896496,2.18825871 Z M4.77938005,6.67502488 L13.8485984,6.67502488 L13.8485984,17.0018706 L4.77938005,17.0018706 L4.77938005,6.67502488 Z M8.83851752,21.608995 C8.83851752,22.217393 8.33587601,22.7121194 7.7177628,22.7121194 L5.8683558,22.7121194 C5.2512938,22.7121194 4.74873315,22.2173134 4.74873315,21.608995 L4.74873315,20.3815323 C4.74873315,19.7729751 5.2512938,19.2783284 5.8683558,19.2783284 L7.7177628,19.2783284 C8.33587601,19.2783284 8.83851752,19.7730547 8.83851752,20.3815323 L8.83851752,21.608995 Z M21.1842049,21.608995 L21.1842049,20.3815323 C21.1842049,19.7729751 21.6867655,19.2783284 22.3048787,19.2783284 L24.1542857,19.2783284 C24.7713477,19.2783284 25.2739084,19.7730547 25.2739084,20.3815323 L25.2739084,21.608995 C25.2739084,22.217393 24.7713477,22.7121194 24.1542857,22.7121194 L22.3048787,22.7121194 C21.6868464,22.712199 21.1842049,22.2173134 21.1842049,21.608995 Z" id="Shape"></path>
            </g>
        </g>
    </g>
</svg>