<?xml version="1.0" encoding="UTF-8"?>
<svg width="25px" height="32px" viewBox="0 0 25 32" version="1.1" xmlns="http://www.w3.org/2000/svg" xmlns:xlink="http://www.w3.org/1999/xlink">
    <!-- Generator: sketchtool 53.2 (72643) - https://sketchapp.com -->
    <title>FEB7B503-D8E0-4B61-B6A1-6C608509753D</title>
    <desc>Created with sketchtool.</desc>
    <g id="Symbols" stroke="none" stroke-width="1" fill="none" fill-rule="evenodd" opacity="0.66">
        <g id="Quickpayments/Icon/Movie-Ticket" transform="translate(-14.000000, -11.000000)" fill-rule="nonzero">
            <g id="popcorn-2" transform="translate(14.000000, 11.000000)">
                <path d="M7.0583501,1.86381447 C6.25251509,2.80622683 6.3249497,4.20612094 7.21227364,4.97469025 C7.57444668,5.28577782 8.00905433,5.45047125 8.4527163,5.47792015 C8.57042254,5.74325956 8.75150905,5.98115006 8.9778672,6.18244202 C9.86519115,6.96016097 11.2414487,6.82291645 12.0472837,5.88050408 C12.4275654,5.43217198 12.6177062,4.87404427 12.6086519,4.33421582 C12.8078471,4.20612094 12.9979879,4.05057715 13.1700201,3.85843482 C13.9758551,2.91602245 13.9034205,1.51612835 13.0160966,0.747559038 C12.1287726,-0.0210102722 10.7525151,0.107084613 9.94668008,1.04949698 C9.87424547,1.13184369 9.81991952,1.21419041 9.75653924,1.29653712 C8.88732394,0.82990575 7.7555332,1.04034735 7.0583501,1.86381447 Z" id="Path" fill="#E2BA13"></path>
                <path d="M14.1841046,0.811606481 C13.2062374,0.875653924 12.4637827,1.68997141 12.5181087,2.63238378 C12.5452716,3.0075188 12.6901408,3.35520491 12.9255533,3.62054432 C12.8440644,3.84013555 12.8078471,4.06887642 12.8169014,4.31591655 C12.8712274,5.25832892 13.7132797,5.97200042 14.6911469,5.90795298 C15.1619718,5.88050408 15.5694165,5.67921211 15.8682093,5.37727417 C16.0492958,5.42302234 16.2484909,5.44132161 16.4476861,5.43217198 C17.4255533,5.36812454 18.168008,4.55380705 18.1136821,3.61139468 C18.0593561,2.66898231 17.2173038,1.95531081 16.2394366,2.01935825 C16.1579477,2.02850789 16.0764588,2.03765752 15.9949698,2.05595679 C15.777666,1.28738748 15.0352113,0.756708673 14.1841046,0.811606481 Z" id="Path" fill="#EDC92F"></path>
                <path d="M5.81790744,6.58502595 C5.81790744,5.5968654 5.05734406,4.79169755 4.12474849,4.79169755 C3.7444668,4.79169755 3.40040241,4.91979244 3.11971831,5.13938367 C2.91146881,5.03873769 2.68511066,4.99298952 2.44064386,4.99298952 C1.50804829,4.99298952 0.747484909,5.79815737 0.747484909,6.78631791 C0.747484909,7.26209891 0.919517103,7.69213174 1.20020121,8.01236895 C1.14587525,8.19536164 1.10965795,8.38750397 1.10965795,8.58879593 C1.10965795,9.57695648 1.87022133,10.3821243 2.8028169,10.3821243 C3.73541247,10.3821243 4.49597586,9.57695648 4.49597586,8.58879593 C4.49597586,8.50644922 4.48692153,8.42410251 4.4778672,8.3417558 C5.24748491,8.1587631 5.81790744,7.4450916 5.81790744,6.58502595 Z" id="Path" fill="#EFD35B"></path>
                <path d="M7.7193159,7.52743831 C8.6971831,7.47254051 9.44869215,6.65822302 9.3943662,5.71581065 C9.37625755,5.331526 9.222334,4.99298952 8.98692153,4.71850048 C9.06841046,4.49890924 9.11368209,4.27016838 9.09557344,4.02312824 C9.04124748,3.08071587 8.2082495,2.36704437 7.23038229,2.42194218 C6.75955734,2.44939108 6.35211268,2.65068305 6.05331992,2.95262099 C5.8722334,2.90687282 5.67303823,2.87942391 5.47384306,2.89772318 C4.49597586,2.95262099 3.7444668,3.76693847 3.79879276,4.70935084 C3.85311871,5.65176321 4.6861167,6.36543471 5.6639839,6.31053691 C5.74547284,6.30138727 5.82696177,6.29223764 5.9084507,6.283088 C6.12575453,7.03335804 6.86820926,7.57318649 7.7193159,7.52743831 Z" id="Path" fill="#F9E595"></path>
                <g id="Group" transform="translate(4.486922, 2.046807)" fill="#EFD35B">
                    <path d="M18.0814889,7.47525151 C19.0593561,7.4203537 19.8108652,6.60603622 19.7565392,5.66362385 C19.7384306,5.27933919 19.584507,4.94080271 19.3490946,4.66631367 C19.4305835,4.44672244 19.4758551,4.21798157 19.4577465,3.97094144 C19.4034205,3.02852907 18.5704225,2.31485757 17.5925553,2.36975537 C17.1217304,2.39720428 16.7142857,2.59849624 16.415493,2.90043418 C16.2344064,2.85468601 16.0352113,2.82723711 15.8360161,2.84553638 C14.8581489,2.90043418 14.1066398,3.71475167 14.1609658,4.65716404 C14.2152918,5.59957641 15.0482897,6.31324791 16.0261569,6.2583501 C16.1076459,6.24920047 16.1891348,6.24005083 16.2706237,6.2309012 C16.4879276,6.99032087 17.2303823,7.53014932 18.0814889,7.47525151 Z" id="Path"></path>
                    <path d="M4.00201207,7.14586466 C4.97987928,7.09096685 5.73138833,6.27664937 5.67706237,5.334237 C5.65895372,4.94995235 5.50503018,4.61141586 5.26961771,4.33692682 C5.35110664,4.11733559 5.39637827,3.88859473 5.37826962,3.64155459 C5.32394366,2.69914222 4.49094567,1.98547072 3.51307847,2.04036853 C3.04225352,2.06781743 2.63480885,2.26910939 2.3360161,2.57104734 C2.15492958,2.52529916 1.95573441,2.49785026 1.75653924,2.51614953 C0.778672032,2.57104734 0.0271629779,3.38536482 0.0814889336,4.32777719 C0.135814889,5.27018956 0.968812877,5.98386106 1.94668008,5.92896325 C2.02816901,5.91981362 2.10965795,5.91066398 2.19114688,5.90151435 C2.4084507,6.66093403 3.15090543,7.19161283 4.00201207,7.14586466 Z" id="Path"></path>
                    <path d="M8.06740443,5.14209467 C9.04527163,5.08719687 9.79678068,4.27287938 9.74245473,3.33046701 C9.72434608,2.95533199 9.57042254,2.60764588 9.33501006,2.33315684 C9.41649899,2.1135656 9.46177062,1.88482474 9.44366197,1.6377846 C9.38933602,0.695372233 8.55633803,-0.0182992693 7.57847082,0.0365985386 C7.10764588,0.0640474426 6.70020121,0.265339405 6.40140845,0.567277348 C6.22032193,0.521529175 6.02112676,0.494080271 5.82193159,0.51237954 C4.84406439,0.567277348 4.09255533,1.38159483 4.14688129,2.3240072 C4.20120724,3.26641957 5.03420523,3.98009107 6.01207243,3.92519326 C6.09356137,3.91604363 6.1750503,3.906894 6.25653924,3.89774436 C6.47384306,4.65716404 7.21629779,5.19699248 8.06740443,5.14209467 Z" id="Path"></path>
                    <path d="M16.6509054,4.13563486 C17.2032193,3.32131738 17.0311871,2.22336122 16.2706237,1.69268241 C15.9627767,1.47309118 15.6006036,1.38159483 15.2474849,1.40904374 C15.1297787,1.20775177 14.9758551,1.03390872 14.77666,0.896664196 C14.0070423,0.356835751 12.9295775,0.585576618 12.3772636,1.3998941 C12.1146881,1.78417876 12.0150905,2.24166049 12.0694165,2.66254368 C11.915493,2.78148893 11.7796781,2.91873345 11.6710262,3.08342688 C11.1187123,3.89774436 11.2907445,4.99570052 12.0603622,5.52637933 C12.8299799,6.06620777 13.9074447,5.83746691 14.4597586,5.02314942 C14.5050302,4.94995235 14.5503018,4.8859049 14.5865191,4.81270783 C15.2927565,5.10549613 16.1710262,4.84930636 16.6509054,4.13563486 Z" id="Path"></path>
                    <path d="M8.89134809,4.53821879 C9.00905433,3.55920788 8.34808853,2.67169332 7.42454728,2.55274807 C7.05331992,2.50699989 6.69114688,2.59849624 6.3832998,2.78148893 C6.18410463,2.66254368 5.9668008,2.58019697 5.73138833,2.55274807 C4.80784708,2.44295245 3.95674044,3.14747432 3.83903421,4.12648523 C3.78470825,4.59311659 3.90241449,5.04144869 4.14688129,5.39828444 C4.06539235,5.5721275 4.0110664,5.76426983 3.98390342,5.96556179 C3.86619718,6.9445727 4.52716298,7.83208726 5.45070423,7.95103251 C6.37424547,8.06082813 7.22535211,7.35630626 7.34305835,6.37729535 C7.35211268,6.29494864 7.361167,6.21260193 7.35211268,6.13025522 C8.13078471,6.03875887 8.7917505,5.39828444 8.89134809,4.53821879 Z" id="Path"></path>
                </g>
                <path d="M10.9245473,8.02151859 C10.806841,9.13777401 11.5674044,10.1259346 12.6177062,10.2448798 C13.0432596,10.290628 13.4507042,10.189982 13.7857143,9.97039077 C14.0120724,10.1076353 14.2565392,10.189982 14.528169,10.2265805 C15.5784708,10.3363762 16.5201207,9.5312083 16.637827,8.41495288 C16.6921529,7.88427407 16.5472837,7.38104416 16.2756539,6.98760987 C16.3661972,6.78631791 16.4205231,6.57587631 16.4476861,6.34713544 C16.5653924,5.23088002 15.804829,4.24271947 14.7635815,4.12377422 C13.7132797,4.01397861 12.7716298,4.81914646 12.6539235,5.93540188 C12.6448692,6.02689823 12.6448692,6.12754421 12.6448692,6.21904056 C11.7575453,6.31053691 11.0241449,7.05165731 10.9245473,8.02151859 Z" id="Path" fill="#F9E595"></path>
                <path d="M19.8973843,8.05811712 C20.4678068,7.25294927 20.304829,6.15499312 19.5442656,5.60601504 C19.2364185,5.38642381 18.8832998,5.28577782 18.5211268,5.30407709 C18.4034205,5.10278513 18.249497,4.92894207 18.0503018,4.78254792 C17.2897384,4.23356984 16.2122736,4.45316107 15.6418511,5.25832892 C15.3702213,5.64261358 15.2706237,6.09094567 15.3158954,6.5209785 C15.1619718,6.63077412 15.0261569,6.77716827 14.9084507,6.9418617 C14.3470825,7.74702955 14.501006,8.8449857 15.2615694,9.39396378 C16.0221328,9.94294186 17.0995976,9.72335063 17.6700201,8.91818278 C17.7152918,8.8449857 17.7605634,8.78093826 17.7967807,8.70774118 C18.5211268,9.00967913 19.3993964,8.75348936 19.8973843,8.05811712 Z" id="Path" fill="#EFD35B"></path>
                <g id="Group" transform="translate(0.140845, 5.706661)" fill="#E5DDD7">
                    <path d="M24.555332,0.722821137 C24.4919517,0.658773695 24.4014085,0.631324791 24.3108652,0.64962406 L22.9346076,0.0365985386 L21.4044266,1.27179922 L19.6750503,0.731970772 L18.3350101,1.93057291 L16.777666,1.35414593 L15.3832998,2.5618977 L13.9346076,1.96717145 L12.3229376,3.2206714 L10.5754527,1.93972255 L9.27162978,2.57104734 L7.64185111,1.30839775 L6.25653924,1.92142328 L4.73541247,0.686222599 L3.25955734,1.28094885 L1.80181087,0.0548978079 L0.344064386,0.64962406 C0.253521127,0.631324791 0.162977867,0.658773695 0.0995975855,0.722821137 C0.0362173038,0.78686858 0.00905432596,0.878364926 0.0181086519,0.969861273 L3.69416499,23.2675209 C3.71227364,23.3681669 3.78470825,23.4505136 3.88430584,23.4871121 L12.250503,26.0673091 C12.250503,26.0673091 12.250503,26.0673091 12.2595573,26.0673091 L12.2595573,26.0673091 L12.2686117,26.0673091 C12.277666,26.0673091 12.2867203,26.0764588 12.2957746,26.0764588 C12.304829,26.0764588 12.3138833,26.0764588 12.3229376,26.0764588 L12.331992,26.0764588 L12.331992,26.0764588 L12.331992,26.0764588 L12.3410463,26.0764588 C12.3501006,26.0764588 12.3591549,26.0764588 12.3682093,26.0764588 C12.3772636,26.0764588 12.3863179,26.0764588 12.3953722,26.0673091 L12.4044266,26.0673091 L12.4044266,26.0673091 C12.4044266,26.0673091 12.4044266,26.0673091 12.4134809,26.0673091 L20.7796781,23.4871121 C20.8792757,23.4596632 20.9517103,23.3681669 20.9698189,23.2675209 L24.6368209,0.960711638 C24.6458753,0.878364926 24.6187123,0.78686858 24.555332,0.722821137 Z" id="Path"></path>
                    <polygon id="Path" points="12.3297493 3.50431007 12.3297493 3.50431007 12.3297493 25.8019697 12.3297493 25.8019697 12.3297493 25.8019697"></polygon>
                </g>
                <g id="Group" transform="translate(1.046278, 6.164143)" fill="#EA4949">
                    <polygon id="Path" points="0.0452716298 0.603875887 3.51307847 22.9015355 4.84406439 23.3132691 1.95573441 1.01560945 0.977867203 0.0365985386"></polygon>
                    <polygon id="Path" points="2.96981891 1.23520068 5.55030181 23.5328603 6.8722334 23.9354442 4.88028169 1.64693424 3.97484909 0.677072964"></polygon>
                    <polygon id="Path" points="5.8943662 1.85737583 7.57847082 24.1550355 8.90945674 24.566769 7.80482897 2.26910939 6.72736419 1.27179922"></polygon>
                    <polygon id="Path" points="8.81891348 2.48870062 9.61569416 24.7863603 10.9376258 25.1889442 10.7293763 2.90043418 9.71529175 1.91227364"></polygon>
                </g>
                <g id="Group" transform="translate(12.997988, 6.164143)" fill="#BF1717">
                    <polygon id="Path" points="0.244466801 2.88213491 0.00905432596 25.1706449 1.34004024 24.7589114 2.15492958 2.47040136 1.07746479 1.93057291"></polygon>
                    <polygon id="Path" points="3.16901408 2.25081012 2.03722334 24.5484698 3.36820926 24.1367362 5.07947686 1.83907656 4.02917505 1.29924812"></polygon>
                    <polygon id="Path" points="6.09356137 1.61948533 4.07444668 23.917145 5.4054326 23.5054114 8.00402414 1.21690141 6.96277666 0.667923329"></polygon>
                    <polygon id="Path" points="9.01810865 0.997310177 6.10261569 23.2949698 7.43360161 22.8832363 10.9285714 0.585576618 9.85110664 0.0457481733"></polygon>
                </g>
            </g>
        </g>
    </g>
</svg>