<?xml version="1.0" encoding="UTF-8"?>
<svg width="20px" height="20px" viewBox="0 0 20 20" version="1.1" xmlns="http://www.w3.org/2000/svg" xmlns:xlink="http://www.w3.org/1999/xlink">
    <!-- Generator: sketchtool 53.2 (72643) - https://sketchapp.com -->
    <title>C3B3263E-0BE5-49B4-9699-611FB0487899</title>
    <desc>Created with sketchtool.</desc>
    <g id="Symbols" stroke="none" stroke-width="1" fill="none" fill-rule="evenodd">
        <g id="qr-code-2" transform="translate(-2.000000, -2.000000)" fill="#50FFFFFF" fill-rule="nonzero">
            <g transform="translate(2.000000, 2.000000)">
                <path d="M7.5,0 L0,0 L0,7.45341615 L7.5,7.45341615 L7.5,0 Z M6.25,6.21118012 L1.25,6.21118012 L1.25,1.24223602 L6.25,1.24223602 L6.25,6.21118012 Z" id="Shape"></path>
                <polygon id="Path" points="2.5 2.48447205 5 2.48447205 5 4.9689441 2.5 4.9689441"></polygon>
                <path d="M0,19.8757764 L7.5,19.8757764 L7.5,12.4223602 L0,12.4223602 L0,19.8757764 Z M1.25,13.6645963 L6.25,13.6645963 L6.25,18.6335404 L1.25,18.6335404 L1.25,13.6645963 Z" id="Shape"></path>
                <polygon id="Path" points="2.5 14.9068323 5 14.9068323 5 17.3913043 2.5 17.3913043"></polygon>
                <path d="M12.5,0 L12.5,7.45341615 L20,7.45341615 L20,0 L12.5,0 Z M18.75,6.21118012 L13.75,6.21118012 L13.75,1.24223602 L18.75,1.24223602 L18.75,6.21118012 Z" id="Shape"></path>
                <polygon id="Path" points="15 2.48447205 17.5 2.48447205 17.5 4.9689441 15 4.9689441"></polygon>
                <polygon id="Path" points="2.5 8.69565217 0 8.69565217 0 11.1801242 3.75 11.1801242 3.75 9.9378882 2.5 9.9378882"></polygon>
                <polygon id="Path" points="8.75 11.1801242 11.25 11.1801242 11.25 13.6645963 8.75 13.6645963"></polygon>
                <polygon id="Path" points="3.75 8.69565217 6.25 8.69565217 6.25 9.9378882 3.75 9.9378882"></polygon>
                <polygon id="Path" points="11.25 14.9068323 8.75 14.9068323 8.75 16.1490683 10 16.1490683 10 17.3913043 11.25 17.3913043 11.25 16.1490683"></polygon>
                <polygon id="Path" points="7.5 8.69565217 7.5 9.9378882 6.25 9.9378882 6.25 11.1801242 8.75 11.1801242 8.75 8.69565217"></polygon>
                <polygon id="Path" points="10 4.9689441 11.25 4.9689441 11.25 7.45341615 10 7.45341615"></polygon>
                <polygon id="Path" points="11.25 9.9378882 11.25 11.1801242 13.75 11.1801242 13.75 8.69565217 10 8.69565217 10 9.9378882"></polygon>
                <polygon id="Path" points="8.75 7.45341615 10 7.45341615 10 8.69565217 8.75 8.69565217"></polygon>
                <polygon id="Path" points="11.25 17.3913043 13.75 17.3913043 13.75 19.8757764 11.25 19.8757764"></polygon>
                <polygon id="Path" points="8.75 17.3913043 10 17.3913043 10 19.8757764 8.75 19.8757764"></polygon>
                <polygon id="Path" points="11.25 13.6645963 12.5 13.6645963 12.5 14.9068323 11.25 14.9068323"></polygon>
                <polygon id="Path" points="11.25 3.72670807 11.25 1.24223602 10 1.24223602 10 0 8.75 0 8.75 4.9689441 10 4.9689441 10 3.72670807"></polygon>
                <polygon id="Path" points="15 17.3913043 16.25 17.3913043 16.25 19.8757764 15 19.8757764"></polygon>
                <polygon id="Path" points="15 14.9068323 17.5 14.9068323 17.5 16.1490683 15 16.1490683"></polygon>
                <polygon id="Path" points="13.75 16.1490683 15 16.1490683 15 17.3913043 13.75 17.3913043"></polygon>
                <polygon id="Path" points="12.5 14.9068323 13.75 14.9068323 13.75 16.1490683 12.5 16.1490683"></polygon>
                <polygon id="Path" points="17.5 12.4223602 17.5 13.6645963 18.75 13.6645963 18.75 14.9068323 20 14.9068323 20 12.4223602 18.75 12.4223602"></polygon>
                <polygon id="Path" points="18.75 16.1490683 17.5 16.1490683 17.5 19.8757764 20 19.8757764 20 17.3913043 18.75 17.3913043"></polygon>
                <polygon id="Path" points="12.5 12.4223602 12.5 13.6645963 16.25 13.6645963 16.25 11.1801242 13.75 11.1801242 13.75 12.4223602"></polygon>
                <polygon id="Path" points="15 8.69565217 15 9.9378882 17.5 9.9378882 17.5 11.1801242 20 11.1801242 20 8.69565217 17.5 8.69565217"></polygon>
            </g>
        </g>
    </g>
</svg>