<?xml version="1.0" encoding="UTF-8"?>
<svg width="21px" height="35px" viewBox="0 0 21 35" version="1.1" xmlns="http://www.w3.org/2000/svg" xmlns:xlink="http://www.w3.org/1999/xlink">
    <!-- Generator: sketchtool 53.2 (72643) - https://sketchapp.com -->
    <title>8BDAFB6C-2ED9-4768-A18A-854B691D47DF</title>
    <desc>Created with sketchtool.</desc>
    <g id="Symbols" stroke="none" stroke-width="1" fill="none" fill-rule="evenodd">
        <g id="Quickpayments/Icon/Recharge" transform="translate(-17.000000, -10.000000)" fill="#44BABA" fill-rule="nonzero">
            <path d="M34.968,10 L19.364,10 C18.064,10 17,11.063 17,12.364 L17,42.635 C17,43.936 18.064,45 19.364,45 L34.968,45 C36.268,45 37.332,43.938 37.332,42.636 L37.332,12.364 C37.332,11.063 36.268,10 34.968,10 Z M24.67,11.704 L29.662,11.704 C29.82,11.704 29.948,11.832 29.948,11.991 C29.948,12.149 29.82,12.277 29.662,12.277 L24.67,12.277 C24.512,12.277 24.384,12.149 24.384,11.991 C24.384,11.832 24.512,11.704 24.67,11.704 Z M27.166,43.818 C26.513,43.818 25.984,43.289 25.984,42.635 C25.984,41.981 26.513,41.453 27.166,41.453 C27.819,41.453 28.348,41.981 28.348,42.635 C28.348,43.289 27.819,43.818 27.166,43.818 Z M35.687,40.625 L18.645,40.625 L18.645,13.749 L35.687,13.749 L35.687,40.625 Z" id="Shape"></path>
        </g>
    </g>
</svg>