<?xml version="1.0" encoding="UTF-8"?>
<svg width="32px" height="32px" viewBox="0 0 32 32" version="1.1" xmlns="http://www.w3.org/2000/svg" xmlns:xlink="http://www.w3.org/1999/xlink">
    <!-- Generator: sketchtool 53.2 (72643) - https://sketchapp.com -->
    <title>49875CD0-97EA-487F-A577-CDE5744CDF5C</title>
    <desc>Created with sketchtool.</desc>
    <g id="Symbols" stroke="none" stroke-width="1" fill="none" fill-rule="evenodd" opacity="0.660598028">
        <g id="Quickpayments/Icon/Help" transform="translate(-11.000000, -11.000000)" fill-rule="nonzero">
            <g id="benefits" transform="translate(11.000000, 11.000000)">
                <path d="M30.125,2.1953125 C29.0894375,2.1953125 28.25,3.03475 28.25,4.0703125 L28.25,14.354875 L14.125,26.9921875 L16,31.9921875 L26.375,31.9921875 L26.375,27.6171875 L32,18.2734375 L32,4.0703125 C32,3.03475 31.1605625,2.1953125 30.125,2.1953125 Z" id="Path" fill="#FF9E90"></path>
                <path d="M27.7008125,13.041375 C26.9685625,12.309125 25.781375,12.309125 25.0491875,13.041375 L17.0958125,20.9946875 C16.417375,21.6733125 16,22.613 16,23.6484375 L14.125,26.8828125 L16,30.1171875 C19.106625,30.1171875 21.625,27.5988125 21.625,24.4921875 L21.625,21.7688125 L27.7008125,15.693 C28.4330625,14.96075 28.4330625,13.773625 27.7008125,13.041375 Z" id="Path" fill="#FFB4B3"></path>
                <path d="M12.21875,21.7375625 L3.75,14.354875 L3.75,4.0703125 C3.75,3.03475 2.9105625,2.1953125 1.875,2.1953125 C0.8394375,2.1953125 0,3.03475 0,4.0703125 L0,18.2734375 L5.625,27.6171875 L5.625,31.9921875 L16,31.9921875 L16,30.1171875 L12.21875,21.7375625 Z" id="Path" fill="#FF9E90"></path>
                <path d="M14.9041875,20.9946875 L6.9508125,13.041375 C6.2185625,12.309125 5.031375,12.309125 4.2991875,13.041375 C3.5669375,13.773625 3.5669375,14.9608125 4.2991875,15.693 L10.375,21.7688125 L10.375,24.4921875 C10.375,27.5988125 12.893375,30.1171875 16,30.1171875 L16,23.6484375 C16,22.613 15.582625,21.6733125 14.9041875,20.9946875 Z" id="Path" fill="#FFCAD6"></path>
                <polygon id="Path" fill="#FF2B59" points="19.75 4.0703125 19.75 0.0078125 16 0.0078125 13.5 7.8203125 16 15.6328125 19.75 15.6328125 19.75 11.5703125 23.8125 11.5703125 23.8125 4.0703125"></polygon>
                <polygon id="Path" fill="#FF2B59" points="12.25 0.0078125 12.25 4.0703125 8.1875 4.0703125 8.1875 11.5703125 12.25 11.5703125 12.25 15.6328125 16 15.6328125 16 0.0078125"></polygon>
            </g>
        </g>
    </g>
</svg>