<?xml version="1.0" encoding="utf-8"?>
<!-- Generator: Adobe Illustrator 16.0.0, SVG Export Plug-In . SVG Version: 6.00 Build 0)  -->
<!DOCTYPE svg PUBLIC "-//W3C//DTD SVG 1.1//EN" "http://www.w3.org/Graphics/SVG/1.1/DTD/svg11.dtd">
<svg version="1.1" id="Layer_1" xmlns="http://www.w3.org/2000/svg" xmlns:xlink="http://www.w3.org/1999/xlink" x="0px" y="0px"
	 width="841.89px" height="595.28px" viewBox="0 0 841.89 595.28" enable-background="new 0 0 841.89 595.28" xml:space="preserve">
<path fill="#00AEEF" d="M530.858,227.428h-30.981v-23.914c0-20.233-16.463-36.696-36.696-36.696h-84.357
	c-20.234,0-36.696,16.462-36.696,36.696v23.914h-30.984v151.057h90.976c2.731,9.342,11.359,16.189,21.568,16.189
	c8.998,0,16.756-5.323,20.348-12.977l46.329,47.298v-50.511h40.494V227.428z M354.782,203.514c0-13.256,10.785-24.042,24.042-24.042
	h84.357c13.257,0,24.042,10.786,24.042,24.042v23.914h-41.972c-2.741-9.325-11.361-16.158-21.563-16.158
	c-10.2,0-18.82,6.833-21.561,16.158h-47.345V203.514z M433.519,233.755c0,2.422-0.912,4.611-2.37,6.327
	c-1.804,2.123-4.461,3.502-7.461,3.502c-2.998,0-5.655-1.379-7.459-3.502c-1.456-1.715-2.37-3.905-2.37-6.327
	c0-2.422,0.915-4.612,2.37-6.327c1.804-2.125,4.461-3.504,7.459-3.504c3,0,5.657,1.379,7.461,3.504
	C432.606,229.143,433.519,231.333,433.519,233.755z M431.176,378.484c-1.804,2.143-4.473,3.536-7.488,3.536
	c-3.013,0-5.682-1.394-7.486-3.536c-1.438-1.711-2.343-3.891-2.343-6.295c0-2.438,0.924-4.639,2.397-6.359
	c1.804-2.105,4.449-3.473,7.432-3.473c2.985,0,5.63,1.367,7.437,3.473c1.473,1.721,2.395,3.922,2.395,6.359
	C433.519,374.594,432.617,376.773,431.176,378.484z M518.205,365.83H477.71v32.163l-32.467-32.163l0,0
	c-2.751-9.31-11.366-16.126-21.556-16.126c-10.188,0-18.8,6.816-21.551,16.126h-78.339V240.082h18.331h12.654h47.345
	c2.743,9.322,11.363,16.156,21.561,16.156c10.199,0,18.822-6.833,21.563-16.156h41.972h12.654h18.328V365.83z"/>
</svg>
