<?xml version="1.0" encoding="UTF-8" standalone="no"?>
<!-- Generator: Adobe Illustrator 16.0.0, SVG Export Plug-In . SVG Version: 6.00 Build 0)  -->

<svg
   xmlns:dc="http://purl.org/dc/elements/1.1/"
   xmlns:cc="http://creativecommons.org/ns#"
   xmlns:rdf="http://www.w3.org/1999/02/22-rdf-syntax-ns#"
   xmlns:svg="http://www.w3.org/2000/svg"
   xmlns="http://www.w3.org/2000/svg"
   xmlns:sodipodi="http://sodipodi.sourceforge.net/DTD/sodipodi-0.dtd"
   xmlns:inkscape="http://www.inkscape.org/namespaces/inkscape"
   version="1.1"
   id="Layer_1"
   x="0px"
   y="0px"
   width="841.89001"
   height="841.89001"
   viewBox="0 0 841.89 841.88997"
   enable-background="new 0 0 841.89 595.28"
   xml:space="preserve"
   sodipodi:docname="logo.svg"
   inkscape:version="0.92.3 (2405546, 2018-03-11)"><metadata
   id="metadata3729"><rdf:RDF><cc:Work
       rdf:about=""><dc:format>image/svg+xml</dc:format><dc:type
         rdf:resource="http://purl.org/dc/dcmitype/StillImage" /><dc:title></dc:title></cc:Work></rdf:RDF></metadata><defs
   id="defs3727" /><sodipodi:namedview
   pagecolor="#ffffff"
   bordercolor="#666666"
   borderopacity="1"
   objecttolerance="10"
   gridtolerance="10"
   guidetolerance="10"
   inkscape:pageopacity="0"
   inkscape:pageshadow="2"
   inkscape:window-width="3200"
   inkscape:window-height="1706"
   id="namedview3725"
   showgrid="false"
   inkscape:zoom="1.2456322"
   inkscape:cx="587.70779"
   inkscape:cy="402.5019"
   inkscape:window-x="-11"
   inkscape:window-y="-11"
   inkscape:window-maximized="1"
   inkscape:current-layer="Layer_1" />
<path
   d="M 778.63071,199.15744 H 680.10506 V 123.10623 C 680.10506,58.761336 627.74949,6.4057616 563.40457,6.4057616 H 295.13278 c -64.3481,0 -116.70047,52.3523954 -116.70047,116.7004684 v 76.05121 H 79.897097 V 679.54833 H 369.21864 c 8.68509,29.70939 36.12384,51.4842 68.59045,51.4842 28.61541,0 53.28737,-16.92819 64.71064,-41.2694 l 147.3353,150.4169 V 679.54516 H 778.63389 V 199.15744 Z m -559.9562,-76.05121 c 0,-42.156669 34.29842,-76.458265 76.45827,-76.458265 h 268.27179 c 42.15987,0 76.45829,34.301596 76.45829,76.458265 v 76.05121 h -133.4792 c -8.7169,-29.65532 -36.1302,-51.3856 -68.57457,-51.3856 -32.438,0 -59.85128,21.73028 -68.5682,51.3856 H 218.67451 Z m 250.3991,96.17231 c 0,7.70244 -2.90035,14.66388 -7.53708,20.1211 -5.73707,6.75157 -14.18685,11.13705 -23.72744,11.13705 -9.53422,0 -17.984,-4.38548 -23.72108,-11.13705 -4.63037,-5.45404 -7.53707,-12.41866 -7.53707,-20.1211 0,-7.70243 2.90988,-14.66707 7.53707,-20.1211 5.73708,-6.75792 14.18686,-11.1434 23.72108,-11.1434 9.54059,0 17.99037,4.38548 23.72744,11.1434 4.63356,5.45403 7.53708,12.41867 7.53708,20.1211 z m -7.45121,460.26662 c -5.73708,6.81514 -14.22502,11.24516 -23.81331,11.24516 -9.58192,0 -18.06987,-4.4332 -23.80694,-11.24516 -4.57312,-5.44133 -7.45121,-12.37414 -7.45121,-20.01935 0,-7.75332 2.93851,-14.75293 7.62294,-20.22286 5.73707,-6.69432 14.14869,-11.04483 23.63521,-11.04483 9.49289,0 17.90451,4.34734 23.65112,11.04483 4.68443,5.47311 7.61658,12.47272 7.61658,20.22286 -0.004,7.64839 -2.87172,14.57802 -7.45439,20.01935 z M 738.39169,639.30295 H 609.60965 V 741.58759 L 506.35823,639.30295 v 0 c -8.74873,-29.60763 -36.14612,-51.28384 -68.55231,-51.28384 -32.39984,0 -59.7877,21.67621 -68.53641,51.28384 H 120.13613 V 239.39964 h 58.29618 40.2422 150.56638 c 8.72328,29.64579 36.13656,51.37925 68.5682,51.37925 32.43483,0 59.85767,-21.73028 68.57457,-51.37925 h 133.4792 40.2422 58.28663 z"
   id="path3722"
   inkscape:connector-curvature="0"
   style="fill:#00aeef;stroke-width:3.18019629" />
</svg>