<?xml version="1.0" encoding="UTF-8"?>
<svg width="22px" height="25px" viewBox="0 0 22 25" version="1.1" xmlns="http://www.w3.org/2000/svg" xmlns:xlink="http://www.w3.org/1999/xlink">
    <!-- Generator: sketchtool 53.2 (72643) - https://sketchapp.com -->
    <title>5E5AE1F8-3026-4522-B28B-B449FCB12453</title>
    <desc>Created with sketchtool.</desc>
    <g id="Symbols" stroke="none" stroke-width="1" fill="none" fill-rule="evenodd">
        <g id="Loan" transform="translate(0.000000, 1.000000)" fill="#FFFFFF" fill-rule="nonzero" stroke="#FFFFFF" stroke-width="0.6">
            <g id="money-bag" transform="translate(1.000000, 0.000000)">
                <path d="M18.9234036,13.135343 C18.3123795,11.7486486 17.4685843,10.4049896 16.4017169,9.14740125 C15.1117771,7.61725572 13.8266867,6.59397089 13.1720181,6.12058212 L15.6452108,1.5970894 C15.7664458,1.37234927 15.7276506,1.0950104 15.5385241,0.918087318 C14.8984036,0.301247401 14.219488,0 13.4629819,0 C12.7695181,0 12.134247,0.258212058 11.5814157,0.487733888 C11.1449699,0.664656965 10.7327711,0.836798337 10.3981627,0.836798337 C10.2963253,0.836798337 10.2090361,0.822453222 10.121747,0.788981289 C8.96759036,0.372972973 8.0801506,0.114760915 7.22180723,0.114760915 C6.13554217,0.114760915 5.20930723,0.545114345 4.30246988,1.46320166 C4.11334337,1.65446985 4.08424699,1.95571726 4.23457831,2.18045738 L6.90174699,6.15405405 C6.24222892,6.63700624 4.98138554,7.65072765 3.71569277,9.14740125 C2.6536747,10.4049896 1.80503012,11.7486486 1.19400602,13.135343 C0.427801205,14.8806653 0.0398493976,16.7024948 0.0398493976,18.5482328 C0.0398493976,21.0012474 2.06689759,23 4.55463855,23 L15.5627711,23 C18.050512,23 20.0775602,21.0012474 20.0775602,18.5482328 C20.0775602,16.7024948 19.6896084,14.8806653 18.9234036,13.135343 Z M5.4760241,1.94137214 C6.03855422,1.46320166 6.57683735,1.25280665 7.22180723,1.25280665 C7.91042169,1.25280665 8.6863253,1.48232848 9.71924699,1.86008316 C9.93262048,1.93659044 10.1605422,1.97484407 10.3933133,1.97484407 C10.9606928,1.97484407 11.5038253,1.75488565 12.0227108,1.53970894 C12.5221988,1.33409563 12.9974398,1.13804574 13.4581325,1.13804574 C13.6812048,1.13804574 13.9964157,1.17629938 14.3940663,1.45363825 L12.0663554,5.71891892 L8.01225904,5.71891892 L5.4760241,1.94137214 Z M15.5627711,21.8523909 L4.55463855,21.8523909 C2.70701807,21.8523909 1.20370482,20.3700624 1.20370482,18.5482328 C1.20370482,15.4831601 2.34331325,12.5758836 4.58373494,9.90769231 C5.99975904,8.21975052 7.44003012,7.17255717 7.8764759,6.86652807 L12.2312349,6.86652807 C12.6725301,7.16777547 14.1079518,8.21975052 15.5239759,9.90769231 C17.769247,12.5758836 18.904006,15.4783784 18.904006,18.5482328 C18.9137048,20.3700624 17.4103916,21.8523909 15.5627711,21.8523909 Z" id="Shape"></path>
            </g>
        </g>
    </g>
</svg>