<?xml version="1.0" encoding="UTF-8"?>
<svg width="42px" height="19px" viewBox="0 0 42 19" version="1.1" xmlns="http://www.w3.org/2000/svg" xmlns:xlink="http://www.w3.org/1999/xlink">
    <!-- Generator: sketchtool 53.2 (72643) - https://sketchapp.com -->
    <title>70EC47F4-ED56-4C2E-94CA-5F3B5F7475E8</title>
    <desc>Created with sketchtool.</desc>
    <g id="Symbols" stroke="none" stroke-width="1" fill="none" fill-rule="evenodd">
        <g id="Quickpayments/Icon/School-Fees" transform="translate(-6.000000, -18.000000)" fill="#979BA3" fill-rule="nonzero">
            <g id="mortarboard" transform="translate(6.000000, 18.000000)">
                <path d="M33.3394436,15.7618818 L33.3394436,8.93483636 L22.3464323,11.1327909 C21.9120993,11.2191545 21.4647363,11.2623364 21.0173733,11.2623364 C20.5700103,11.2623364 20.1269907,11.2191545 19.6883144,11.1327909 L8.695303,8.93483636 L8.695303,15.7618818 C8.695303,17.5280182 14.211332,18.9616977 21.0173299,18.9616977 C27.8233278,18.9616977 33.3394436,17.5323364 33.3394436,15.7618818 Z" id="Path"></path>
                <path d="M41.118304,3.94301818 L22.0901758,0.134381818 C21.7383226,0.0652909091 21.3778697,0.0264272727 21.0173733,0.0264272727 C20.6568769,0.0264272727 20.3007239,0.0609727273 19.9445708,0.134381818 L0.916442606,3.94301818 C-0.247613237,4.1762 -0.247613237,5.82574545 0.916442606,6.05892727 L8.69534643,7.61347273 L19.9445708,9.86324545 C20.296424,9.93233636 20.6568769,9.9712 21.0173733,9.9712 C21.3778697,9.9712 21.7340228,9.93665455 22.0901758,9.86324545 L33.3394002,7.61347273 L36.8401241,6.91392727 L36.8401241,15.0061568 C36.4275078,15.3646091 36.166908,15.8957455 36.166908,16.482975 C36.166908,17.5668818 37.0529473,18.4477477 38.1431231,18.4477477 C39.2333423,18.4477477 40.1193382,17.5668818 40.1193382,16.482975 C40.1193382,15.8913841 39.8587384,15.3646091 39.446122,15.0061568 L39.446122,6.39138409 L41.118304,6.05892727 C42.2779731,5.82578864 42.2779731,4.1762 41.118304,3.94301818 Z" id="Path"></path>
            </g>
        </g>
    </g>
</svg>