<?xml version="1.0" encoding="UTF-8"?>
<svg width="26px" height="30px" viewBox="0 0 26 30" version="1.1" xmlns="http://www.w3.org/2000/svg" xmlns:xlink="http://www.w3.org/1999/xlink">
    <!-- Generator: sketchtool 53.2 (72643) - https://sketchapp.com -->
    <title>A030C3D8-DFD3-41B8-894E-78E9BF81BE4F</title>
    <desc>Created with sketchtool.</desc>
    <g id="Symbols" stroke="none" stroke-width="1" fill="none" fill-rule="evenodd">
        <g id="Quickpayments/Icon/Train" transform="translate(-14.000000, -12.000000)" fill="#EE8B93" fill-rule="nonzero">
            <g id="public-transport-subway" transform="translate(14.000000, 12.000000)">
                <path d="M12.9841076,0 C5.85158924,0 0.0158924205,0.788659794 0.0158924205,6.30927835 L0.0158924205,21.2938144 C0.0158924205,24.2907216 2.60953545,26.814433 5.68948655,26.814433 L3.25794621,29.1804124 L3.25794621,29.9690722 L22.7102689,29.9690722 L22.7102689,29.1804124 L20.2787286,26.814433 C23.3586797,26.814433 25.9523227,24.2907216 25.9523227,21.2938144 L25.9523227,6.30927835 C25.9523227,0.788659794 20.1166259,0 12.9841076,0 Z M5.68948655,23.6597938 C4.39266504,23.6597938 3.25794621,22.5556701 3.25794621,21.2938144 C3.25794621,20.0319588 4.39266504,18.9278351 5.68948655,18.9278351 C6.98630807,18.9278351 8.12102689,20.0319588 8.12102689,21.2938144 C8.12102689,22.5556701 6.98630807,23.6597938 5.68948655,23.6597938 Z M11.3630807,14.1958763 L3.25794621,14.1958763 L3.25794621,6.30927835 L11.3630807,6.30927835 L11.3630807,14.1958763 Z M20.2787286,23.6597938 C18.9819071,23.6597938 17.8471883,22.5556701 17.8471883,21.2938144 C17.8471883,20.0319588 18.9819071,18.9278351 20.2787286,18.9278351 C21.5755501,18.9278351 22.7102689,20.0319588 22.7102689,21.2938144 C22.7102689,22.5556701 21.5755501,23.6597938 20.2787286,23.6597938 Z M22.7102689,14.1958763 L14.6051345,14.1958763 L14.6051345,6.30927835 L22.7102689,6.30927835 L22.7102689,14.1958763 Z" id="Shape"></path>
            </g>
        </g>
    </g>
</svg>