<?xml version="1.0" encoding="UTF-8"?>
<svg width="25px" height="20px" viewBox="0 0 25 20" version="1.1" xmlns="http://www.w3.org/2000/svg" xmlns:xlink="http://www.w3.org/1999/xlink">
    <!-- Generator: sketchtool 53.2 (72643) - https://sketchapp.com -->
    <title>B7E68018-2E85-4BCF-AF63-84B04E257604</title>
    <desc>Created with sketchtool.</desc>
    <g id="Symbols" stroke="none" stroke-width="0.5" fill="none" fill-rule="evenodd">
        <g id="Statement" transform="translate(1.000000, -2.000000)" fill="#FFFFFF" fill-rule="nonzero">
            <g id="transfer" transform="translate(-1.000000, 2.000000)">
                <path d="M24.1888534,6.62986629 L18.0776368,0.266164132 C17.7366441,-0.0888101385 17.1838739,-0.0887036036 16.8429835,0.266377202 C16.6793418,0.436833034 16.5874181,0.667907222 16.5873669,0.908942422 L16.5873669,3.63623574 L10.4761503,3.63623574 C9.99397255,3.63623574 9.60310472,4.0432523 9.60310472,4.54535126 C9.60310472,5.04745023 9.99397255,5.45446679 10.4761503,5.45446679 L17.4604125,5.45446679 C17.9425902,5.45446679 18.333458,5.04745023 18.333458,4.54535126 L18.333458,3.10345473 L22.3371804,7.27259131 L18.333458,11.4417279 L18.333458,9.99988463 C18.333458,9.49778567 17.9425902,9.0907691 17.4604125,9.0907691 L7.85706476,9.0907691 L7.85706476,6.36347579 C7.85696245,5.86137682 7.46599232,5.45446679 6.98386573,5.45457333 C6.75244497,5.45462659 6.53048771,5.5503482 6.36679486,5.72075076 L0.255629398,12.0844529 C-0.0852097992,12.4394805 -0.0852097992,13.0149287 0.255629398,13.369903 L6.36684601,19.7336051 C6.53053886,19.9041142 6.75254728,19.9999424 6.98407035,19.9999956 C7.0988088,20.0003685 7.21252418,19.9768776 7.31841299,19.9309078 C7.64457098,19.7900686 7.85716706,19.4585853 7.85706476,19.0908801 L7.85706476,16.3635868 L13.9682814,16.3635868 C14.4504591,16.3635868 14.8413269,15.9565702 14.8413269,15.4544713 C14.8413269,14.9523723 14.4504591,14.5453557 13.9682814,14.5453557 L6.98407035,14.5453557 C6.50189261,14.5453557 6.11102479,14.9523723 6.11102479,15.4544713 L6.11102479,16.8963145 L2.1073024,12.7271779 L6.11102479,8.55804136 L6.11102479,9.99988463 C6.11102479,10.5019836 6.50189261,10.9090002 6.98407035,10.9090002 L16.5873669,10.9090002 L16.5873669,13.6362935 C16.5874692,14.1383924 16.9784393,14.5453025 17.4605659,14.5451959 C17.6919867,14.5451427 17.913944,14.4494211 18.0776368,14.2790185 L24.1888534,7.91531634 C24.5296415,7.5602888 24.5296415,6.98484056 24.1888534,6.62986629 Z" id="Path"></path>
            </g>
        </g>
    </g>
</svg>