<?xml version="1.0" encoding="UTF-8"?>
<svg width="23px" height="23px" viewBox="0 0 23 23" version="1.1" xmlns="http://www.w3.org/2000/svg" xmlns:xlink="http://www.w3.org/1999/xlink">
    <!-- Generator: sketchtool 53.2 (72643) - https://sketchapp.com -->
    <title>02D587C9-A812-40A6-ADB8-A2A9BEE3E1E5</title>
    <desc>Created with sketchtool.</desc>
    <g id="Symbols" stroke="none" stroke-width="1" fill="none" fill-rule="evenodd">
        <g id="UPI" fill-rule="nonzero">
            <g id="Group" transform="translate(3.000000, 0.000000)">
                <path d="M5.53248571,17.078328 C5.14809857,17.3288354 4.79671677,17.6260001 4.48649121,17.9629289 C3.12403608,19.190418 1.7741467,20.4316485 0.416064103,21.6639384 C0.331171625,21.8098262 0.169137003,21.8940245 2.39808173e-13,21.8801384 L6.30804066,-1.0125234e-13 C7.24623425,1.75155036 8.13663333,3.41387745 9.02705348,5.07616691 C9.96421502,6.86573 10.8842824,8.66448891 11.85083,10.4382949 C11.9744679,10.5864365 12.0275759,10.7803968 11.9964945,10.970288 C11.9654131,11.1601792 11.8531757,11.3274679 11.6886505,11.4291265 C9.64500366,13.2590693 7.62976557,15.1202753 5.60478407,16.9707549 C5.57869268,16.975109 5.55548015,16.9897434 5.54041642,17.0113357 C5.52535268,17.0329279 5.51971574,17.0596462 5.52478535,17.0854245 L5.53248571,17.078328 Z" id="Path" fill="#FE7A09"></path>
                <path d="M5.60477564,16.9707549 C7.62976136,15.1202753 9.64499945,13.2590693 11.6886421,11.4291265 C11.8531673,11.3274679 11.9654047,11.1601792 11.9964861,10.970288 C12.0275675,10.7803968 11.9744594,10.5864365 11.8508216,10.4382949 C10.884274,8.66448891 9.96420659,6.86573 9.02704505,5.07616691 C9.41410781,3.77015164 9.80118321,2.46411406 10.1882712,1.15805418 C10.225998,1.03075964 10.2636742,0.903452545 10.3021086,0.773715818 C10.4191258,0.802934589 10.5050795,0.901920737 10.5169438,1.02112473 C12.334073,4.46075939 14.1505127,7.90075091 15.966263,11.3410993 C16.0411087,11.4270316 16.0754634,11.5405847 16.0606977,11.6532355 C16.0459319,11.7658862 15.9834489,11.8669302 15.8889434,11.9309865 C12.0109047,15.4464655 8.13844469,18.9680164 4.27156337,22.4956393 C4.2038281,22.559781 4.1120903,22.5927655 4.01868974,22.5865604 C4.14789414,22.1307087 4.27542619,21.6743762 4.40661886,21.2190849 C4.7680011,19.96492 5.13326722,18.7118549 5.48936703,17.4562138 C5.5623703,17.3438407 5.57831916,17.2040688 5.53248571,17.0783322 L5.52477692,17.0854413 C5.62973864,17.1010311 5.59805256,17.0226722 5.60477564,16.9707549 Z" id="Path" fill="#028C3C"></path>
            </g>
        </g>
    </g>
</svg>